<mxfile host="app.diagrams.net" modified="2023-04-21T15:26:02.542Z" agent="Mozilla/5.0 (Macintosh; Intel Mac OS X 10_15_7) AppleWebKit/537.36 (KHTML, like Gecko) Chrome/112.0.0.0 Safari/537.36" etag="tIx-2mDxK-Kso3M2WbTS" version="21.2.1" type="onedrive">
  <diagram name="Page-1" id="2YBvvXClWsGukQMizWep">
    <mxGraphModel grid="1" page="1" gridSize="10" guides="1" tooltips="1" connect="1" arrows="1" fold="1" pageScale="1" pageWidth="850" pageHeight="1100" math="0" shadow="0">
      <root>
        <mxCell id="0" />
        <mxCell id="1" parent="0" />
        <mxCell id="vbn1vjWYSr6YsiNQEqlZ-50" value="3.2 fast := FindFastest(possible_suppliers) &lt;br&gt;: Order Managment" style="html=1;verticalAlign=bottom;endArrow=block;edgeStyle=elbowEdgeStyle;elbow=vertical;curved=0;rounded=0;" edge="1" parent="1">
          <mxGeometry x="1" y="-45" width="80" relative="1" as="geometry">
            <mxPoint x="520" y="351.5" as="sourcePoint" />
            <mxPoint x="557" y="351" as="targetPoint" />
            <mxPoint x="23" y="-6" as="offset" />
            <Array as="points">
              <mxPoint x="541" y="351" />
            </Array>
          </mxGeometry>
        </mxCell>
        <mxCell id="vbn1vjWYSr6YsiNQEqlZ-1" value="cd : Required Items Order" style="shape=umlFrame;whiteSpace=wrap;html=1;pointerEvents=0;width=150;height=30;" vertex="1" parent="1">
          <mxGeometry x="10" y="11" width="790" height="409" as="geometry" />
        </mxCell>
        <mxCell id="vbn1vjWYSr6YsiNQEqlZ-10" style="edgeStyle=none;rounded=0;orthogonalLoop=1;jettySize=auto;html=1;exitX=1;exitY=0.5;exitDx=0;exitDy=0;endArrow=none;endFill=0;" edge="1" parent="1" source="vbn1vjWYSr6YsiNQEqlZ-2" target="vbn1vjWYSr6YsiNQEqlZ-9">
          <mxGeometry relative="1" as="geometry" />
        </mxCell>
        <mxCell id="vbn1vjWYSr6YsiNQEqlZ-16" style="edgeStyle=none;rounded=0;orthogonalLoop=1;jettySize=auto;html=1;exitX=1;exitY=1;exitDx=0;exitDy=0;entryX=0;entryY=0.75;entryDx=0;entryDy=0;endArrow=none;endFill=0;" edge="1" parent="1" source="vbn1vjWYSr6YsiNQEqlZ-2" target="vbn1vjWYSr6YsiNQEqlZ-15">
          <mxGeometry relative="1" as="geometry" />
        </mxCell>
        <mxCell id="vbn1vjWYSr6YsiNQEqlZ-2" value="&lt;u&gt;b : Branch&lt;/u&gt;" style="html=1;whiteSpace=wrap;" vertex="1" parent="1">
          <mxGeometry x="130" y="61" width="80" height="40" as="geometry" />
        </mxCell>
        <mxCell id="vbn1vjWYSr6YsiNQEqlZ-3" value="" style="html=1;verticalAlign=bottom;endArrow=none;edgeStyle=elbowEdgeStyle;elbow=vertical;curved=0;rounded=0;entryX=0;entryY=0.5;entryDx=0;entryDy=0;endFill=0;exitX=-0.002;exitY=0.169;exitDx=0;exitDy=0;exitPerimeter=0;" edge="1" parent="1" target="vbn1vjWYSr6YsiNQEqlZ-2" source="vbn1vjWYSr6YsiNQEqlZ-1">
          <mxGeometry width="80" relative="1" as="geometry">
            <mxPoint x="40" y="80" as="sourcePoint" />
            <mxPoint x="110" y="80" as="targetPoint" />
          </mxGeometry>
        </mxCell>
        <mxCell id="vbn1vjWYSr6YsiNQEqlZ-7" value="" style="html=1;verticalAlign=bottom;endArrow=block;edgeStyle=elbowEdgeStyle;elbow=horizontal;curved=0;rounded=0;" edge="1" parent="1">
          <mxGeometry width="80" relative="1" as="geometry">
            <mxPoint x="30" y="71" as="sourcePoint" />
            <mxPoint x="110" y="71" as="targetPoint" />
            <mxPoint as="offset" />
          </mxGeometry>
        </mxCell>
        <mxCell id="vbn1vjWYSr6YsiNQEqlZ-9" value="&lt;u&gt;c : Catalog Item&lt;/u&gt;" style="html=1;whiteSpace=wrap;" vertex="1" parent="1">
          <mxGeometry x="310" y="61" width="90" height="40" as="geometry" />
        </mxCell>
        <mxCell id="vbn1vjWYSr6YsiNQEqlZ-11" value="&lt;font color=&quot;#333333&quot;&gt;2.1 isRequired()&lt;/font&gt;" style="html=1;verticalAlign=bottom;endArrow=block;edgeStyle=elbowEdgeStyle;elbow=vertical;curved=0;rounded=0;" edge="1" parent="1">
          <mxGeometry width="80" relative="1" as="geometry">
            <mxPoint x="215" y="71" as="sourcePoint" />
            <mxPoint x="295" y="71" as="targetPoint" />
          </mxGeometry>
        </mxCell>
        <mxCell id="vbn1vjWYSr6YsiNQEqlZ-34" style="edgeStyle=none;rounded=0;orthogonalLoop=1;jettySize=auto;html=1;exitX=0.75;exitY=1;exitDx=0;exitDy=0;endArrow=none;endFill=0;entryX=0;entryY=0;entryDx=0;entryDy=0;" edge="1" parent="1" source="vbn1vjWYSr6YsiNQEqlZ-2" target="vbn1vjWYSr6YsiNQEqlZ-33">
          <mxGeometry relative="1" as="geometry" />
        </mxCell>
        <mxCell id="vbn1vjWYSr6YsiNQEqlZ-15" value="&lt;u&gt;r : Report&lt;/u&gt;" style="html=1;whiteSpace=wrap;" vertex="1" parent="1">
          <mxGeometry x="310" y="161" width="90" height="40" as="geometry" />
        </mxCell>
        <mxCell id="vbn1vjWYSr6YsiNQEqlZ-22" value="" style="endArrow=none;html=1;rounded=0;entryX=0;entryY=1;entryDx=0;entryDy=0;exitX=0.5;exitY=1;exitDx=0;exitDy=0;" edge="1" parent="1" source="vbn1vjWYSr6YsiNQEqlZ-2" target="vbn1vjWYSr6YsiNQEqlZ-2">
          <mxGeometry width="50" height="50" relative="1" as="geometry">
            <mxPoint x="390" y="250" as="sourcePoint" />
            <mxPoint x="450" y="200" as="targetPoint" />
            <Array as="points">
              <mxPoint x="170" y="120" />
              <mxPoint x="130" y="120" />
            </Array>
          </mxGeometry>
        </mxCell>
        <mxCell id="vbn1vjWYSr6YsiNQEqlZ-24" value="&lt;font style=&quot;font-size: 10px;&quot;&gt;2. *[c in catalog Item] isRequired() &lt;br&gt;:= addToReport(c)&lt;/font&gt;" style="html=1;verticalAlign=bottom;endArrow=block;edgeStyle=elbowEdgeStyle;elbow=vertical;curved=0;rounded=0;" edge="1" parent="1">
          <mxGeometry x="-0.8933" y="-40" width="80" relative="1" as="geometry">
            <mxPoint x="128" y="130" as="sourcePoint" />
            <mxPoint x="165" y="129.5" as="targetPoint" />
            <mxPoint as="offset" />
          </mxGeometry>
        </mxCell>
        <mxCell id="vbn1vjWYSr6YsiNQEqlZ-44" style="edgeStyle=none;rounded=0;orthogonalLoop=1;jettySize=auto;html=1;exitX=1;exitY=0.5;exitDx=0;exitDy=0;entryX=0;entryY=0.5;entryDx=0;entryDy=0;endArrow=none;endFill=0;" edge="1" parent="1" source="vbn1vjWYSr6YsiNQEqlZ-33" target="vbn1vjWYSr6YsiNQEqlZ-36">
          <mxGeometry relative="1" as="geometry" />
        </mxCell>
        <mxCell id="vbn1vjWYSr6YsiNQEqlZ-55" style="edgeStyle=orthogonalEdgeStyle;rounded=0;hachureGap=4;orthogonalLoop=1;jettySize=auto;html=1;exitX=0.947;exitY=0.016;exitDx=0;exitDy=0;entryX=0;entryY=0.5;entryDx=0;entryDy=0;fontFamily=Architects Daughter;fontSource=https%3A%2F%2Ffonts.googleapis.com%2Fcss%3Ffamily%3DArchitects%2BDaughter;fontSize=16;strokeColor=default;endArrow=none;endFill=0;exitPerimeter=0;" edge="1" parent="1" source="vbn1vjWYSr6YsiNQEqlZ-33" target="vbn1vjWYSr6YsiNQEqlZ-54">
          <mxGeometry relative="1" as="geometry">
            <Array as="points">
              <mxPoint x="560" y="281" />
              <mxPoint x="560" y="200" />
            </Array>
          </mxGeometry>
        </mxCell>
        <mxCell id="vbn1vjWYSr6YsiNQEqlZ-33" value="Order Managment" style="html=1;whiteSpace=wrap;" vertex="1" parent="1">
          <mxGeometry x="190" y="280" width="380" height="40" as="geometry" />
        </mxCell>
        <mxCell id="vbn1vjWYSr6YsiNQEqlZ-36" value="&lt;u&gt;s : Supplier&lt;/u&gt;" style="html=1;whiteSpace=wrap;" vertex="1" parent="1">
          <mxGeometry x="680" y="280" width="90" height="40" as="geometry" />
        </mxCell>
        <mxCell id="vbn1vjWYSr6YsiNQEqlZ-38" value="&lt;font color=&quot;#333333&quot;&gt;3. CreateOrder(r)&lt;/font&gt;" style="html=1;verticalAlign=bottom;endArrow=block;edgeStyle=orthogonalEdgeStyle;elbow=vertical;strokeColor=default;curved=1;shadow=0;" edge="1" parent="1">
          <mxGeometry x="-0.0857" y="7" width="80" relative="1" as="geometry">
            <mxPoint x="228" y="248" as="sourcePoint" />
            <mxPoint x="298" y="248" as="targetPoint" />
            <mxPoint as="offset" />
          </mxGeometry>
        </mxCell>
        <mxCell id="vbn1vjWYSr6YsiNQEqlZ-40" value="" style="endArrow=none;html=1;rounded=0;entryX=0;entryY=1;entryDx=0;entryDy=0;exitX=0.5;exitY=1;exitDx=0;exitDy=0;" edge="1" parent="1">
          <mxGeometry width="50" height="50" relative="1" as="geometry">
            <mxPoint x="240" y="320" as="sourcePoint" />
            <mxPoint x="200" y="320" as="targetPoint" />
            <Array as="points">
              <mxPoint x="240" y="339" />
              <mxPoint x="200" y="339" />
            </Array>
          </mxGeometry>
        </mxCell>
        <mxCell id="vbn1vjWYSr6YsiNQEqlZ-41" value="3.1 possible_suppliers := GetAllPossibleSuppliers(r) &lt;br&gt;: Order Managment" style="html=1;verticalAlign=bottom;endArrow=block;edgeStyle=elbowEdgeStyle;elbow=vertical;curved=0;rounded=0;" edge="1" parent="1">
          <mxGeometry x="-1" y="65" width="80" relative="1" as="geometry">
            <mxPoint x="200" y="349" as="sourcePoint" />
            <mxPoint x="237" y="348" as="targetPoint" />
            <mxPoint x="15" y="41" as="offset" />
          </mxGeometry>
        </mxCell>
        <mxCell id="vbn1vjWYSr6YsiNQEqlZ-51" value="" style="endArrow=none;html=1;rounded=0;entryX=0;entryY=1;entryDx=0;entryDy=0;exitX=0.5;exitY=1;exitDx=0;exitDy=0;" edge="1" parent="1">
          <mxGeometry width="50" height="50" relative="1" as="geometry">
            <mxPoint x="383" y="320" as="sourcePoint" />
            <mxPoint x="343" y="320" as="targetPoint" />
            <Array as="points">
              <mxPoint x="383" y="339" />
              <mxPoint x="343" y="339" />
            </Array>
          </mxGeometry>
        </mxCell>
        <mxCell id="vbn1vjWYSr6YsiNQEqlZ-53" value="3.1.1.1 CanSupply(r)" style="html=1;verticalAlign=bottom;endArrow=block;edgeStyle=elbowEdgeStyle;elbow=vertical;curved=0;rounded=0;" edge="1" parent="1">
          <mxGeometry x="0.248" y="-22" width="80" relative="1" as="geometry">
            <mxPoint x="600" y="278.5" as="sourcePoint" />
            <mxPoint x="637" y="278" as="targetPoint" />
            <mxPoint as="offset" />
            <Array as="points">
              <mxPoint x="621" y="278" />
            </Array>
          </mxGeometry>
        </mxCell>
        <mxCell id="vbn1vjWYSr6YsiNQEqlZ-54" value="&lt;u&gt;o : Order&lt;/u&gt;" style="html=1;whiteSpace=wrap;" vertex="1" parent="1">
          <mxGeometry x="680" y="180" width="90" height="40" as="geometry" />
        </mxCell>
        <mxCell id="vbn1vjWYSr6YsiNQEqlZ-57" value="3.3 CreateOrder(r, fast)" style="html=1;verticalAlign=bottom;endArrow=block;edgeStyle=elbowEdgeStyle;elbow=vertical;curved=0;rounded=0;" edge="1" parent="1">
          <mxGeometry x="0.248" y="-22" width="80" relative="1" as="geometry">
            <mxPoint x="596" y="178.5" as="sourcePoint" />
            <mxPoint x="633" y="178" as="targetPoint" />
            <mxPoint as="offset" />
            <Array as="points">
              <mxPoint x="617" y="178" />
            </Array>
          </mxGeometry>
        </mxCell>
        <mxCell id="vbn1vjWYSr6YsiNQEqlZ-31" value="&lt;font color=&quot;#333333&quot;&gt;&lt;br&gt;1. r = Create()&lt;br&gt;2.1.1 addToReport(c)&lt;/font&gt;" style="html=1;verticalAlign=bottom;endArrow=block;edgeStyle=orthogonalEdgeStyle;elbow=vertical;strokeColor=default;curved=1;shadow=0;" edge="1" parent="1">
          <mxGeometry x="0.2993" width="80" relative="1" as="geometry">
            <mxPoint x="240" y="151" as="sourcePoint" />
            <mxPoint x="310" y="151" as="targetPoint" />
            <mxPoint as="offset" />
          </mxGeometry>
        </mxCell>
        <mxCell id="3xzAPlDOIFHPs_-MZYh9-1" value="" style="endArrow=none;html=1;rounded=0;entryX=0;entryY=1;entryDx=0;entryDy=0;exitX=0.5;exitY=1;exitDx=0;exitDy=0;" edge="1" parent="1">
          <mxGeometry width="50" height="50" relative="1" as="geometry">
            <mxPoint x="560" y="320" as="sourcePoint" />
            <mxPoint x="520" y="320" as="targetPoint" />
            <Array as="points">
              <mxPoint x="560" y="339" />
              <mxPoint x="520" y="339" />
            </Array>
          </mxGeometry>
        </mxCell>
        <mxCell id="3xzAPlDOIFHPs_-MZYh9-3" value="&lt;font style=&quot;font-size: 10px;&quot;&gt;3.1.1 *[s in AllSuppliers] CanSupply(r)&lt;br&gt;:= AddToPossibleSuppliers()&lt;br&gt;&amp;nbsp;: Order Managment&lt;br&gt;&lt;/font&gt;" style="html=1;verticalAlign=bottom;endArrow=block;edgeStyle=elbowEdgeStyle;elbow=vertical;curved=0;rounded=0;" edge="1" parent="1">
          <mxGeometry x="0.6267" y="-50" width="80" relative="1" as="geometry">
            <mxPoint x="343" y="350.5" as="sourcePoint" />
            <mxPoint x="380" y="350" as="targetPoint" />
            <mxPoint as="offset" />
          </mxGeometry>
        </mxCell>
      </root>
    </mxGraphModel>
  </diagram>
</mxfile>
